<?xml version="1.0" standalone="no"?><!DOCTYPE svg PUBLIC "-//W3C//DTD SVG 1.1//EN" "http://www.w3.org/Graphics/SVG/1.1/DTD/svg11.dtd"><svg t="1708402691567" class="icon" viewBox="0 0 1243 1024" version="1.1" xmlns="http://www.w3.org/2000/svg" p-id="3169" xmlns:xlink="http://www.w3.org/1999/xlink" width="19.421875" height="16"><path d="M745.252571 862.354286c24.137143 0 43.593143 24.576 43.593143 54.857143 0 30.354286-19.529143 54.857143-43.593143 54.857142H108.032c-24.137143 0-43.666286-24.502857-43.666286-54.857142 0-30.281143 19.602286-54.857143 43.666286-54.857143h637.220571z m137.947429 68.900571l-0.438857-7.314286V122.953143a54.857143 54.857143 0 0 1 109.714286 0v668.525714L1104.457143 679.350857a54.784 54.784 0 0 1 77.531428 0 54.784 54.784 0 0 1 0 77.604572l-205.604571 205.677714a58.221714 58.221714 0 0 1-14.262857 10.24 57.636571 57.636571 0 0 1-14.628572 4.900571l-4.534857 0.585143-5.339428 0.292572H936.228571a59.830857 59.830857 0 0 1-8.996571-0.950858l-1.974857-0.438857a46.665143 46.665143 0 0 1-5.339429-1.462857l-1.901714-0.731428-0.950857-0.365715-0.877714-0.365714-4.534858-2.194286-0.512-0.219428a54.857143 54.857143 0 0 1-17.92-15.798857l-0.804571-1.170286a53.906286 53.906286 0 0 1-8.777143-20.918857l-0.365714-2.194286-0.146286-0.731429zM745.325714 453.485714c24.137143 0 43.593143 24.576 43.593143 54.857143s-19.529143 54.857143-43.593143 54.857143H108.032c-24.137143 0-43.666286-24.576-43.666286-54.857143s19.602286-54.857143 43.666286-54.857143h637.220571z m6.948572-394.093714c24.137143 0 43.593143 24.576 43.593143 54.857143 0 30.354286-19.529143 54.857143-43.593143 54.857143H114.980571c-24.137143 0-43.593143-24.502857-43.593142-54.857143 0-30.281143 19.529143-54.857143 43.593142-54.857143h637.220572z" fill="#135784" p-id="3170"></path></svg>